# xmcd CD database file
#
# Track frame offsets:
#	150
#	34369
#	63884
#	98341
#	122863
#	160148
#	189817
#	215637
#	249270
#	283167
#	305999
#	340302
#
# Disc length: 4792 seconds
#
# Revision: 0
# Processed by: cddbd v1.5.2PL0 Copyright (c) Steve Scherf et al.
# Submitted via: CDex 1.70beta2
#
DISCID=ac12b60c
DTITLE=Herbie Hancock - River: The Joni Letters
DYEAR=2007
DGENRE=Jazz
TTITLE0=Court and Spark (Norah Jones)
TTITLE1=Edith and the Kingpin
TTITLE2=Both Sides Now
TTITLE3=River (Corinne Bailey Rae)
TTITLE4=Sweet Bird
TTITLE5=Tea Leaf Prophecy (Joni Mitchell)
TTITLE6=Solitude
TTITLE7=Amelia (Luciana Souza)
TTITLE8=Nefertiti
TTITLE9=The Jungle Line (Leonard Cohen)
TTITLE10=Case of You
TTITLE11=All I Want (Sonya Kitchell)
EXTD=YEAR: 2007
EXTT0=
EXTT1=
EXTT2=
EXTT3=
EXTT4=
EXTT5=
EXTT6=
EXTT7=
EXTT8=
EXTT9=
EXTT10=
EXTT11=
PLAYORDER=
